<svg xmlns="http://www.w3.org/2000/svg" width="173.609" height="193.249" viewBox="0 0 173.609 193.249"><path d="M-893.5,498.834l-17.652-10.19V454.672l29.459,16.261,29.46-16.261v33.972l-17.651,10.19A23.59,23.59,0,0,1-881.7,502,23.588,23.588,0,0,1-893.5,498.834ZM-818.112,373.8a5.088,5.088,0,0,0-7.635-4.406l-55.906,31.542L-937.645,369.4a5.089,5.089,0,0,0-7.635,4.406v95.143l-10.912-6.3A23.632,23.632,0,0,1-968,442.2V369.8a23.633,23.633,0,0,1,11.808-20.451l62.688-36.187a23.6,23.6,0,0,1,23.616,0l62.689,36.187A23.627,23.627,0,0,1-795.391,369.8V442.2A23.627,23.627,0,0,1-807.2,462.644l-10.913,6.3Z" transform="translate(968.501 -309.251)" fill="#44c9f6" stroke="rgba(0,0,0,0)" stroke-miterlimit="10" stroke-width="1"/></svg>